<?xml version="1.0" encoding="UTF-8" standalone="no"?>
<!DOCTYPE svg PUBLIC "-//W3C//DTD SVG 1.1//EN" "http://www.w3.org/Graphics/SVG/1.1/DTD/svg11.dtd">
<!-- Created with Vectornator (http://vectornator.io/) -->
<svg height="100%" stroke-miterlimit="10" style="fill-rule:nonzero;clip-rule:evenodd;stroke-linecap:round;stroke-linejoin:round;" version="1.1" viewBox="0 0 1024 1024" width="100%" xml:space="preserve" xmlns="http://www.w3.org/2000/svg" xmlns:xlink="http://www.w3.org/1999/xlink">
<defs>
<linearGradient gradientTransform="matrix(0.987651 0 0 1.0775 18.1249 27.9927)" gradientUnits="userSpaceOnUse" id="LinearGradient" x1="227.682" x2="768.774" y1="-30.4629" y2="829.97">
<stop offset="0.0215667" stop-color="#7ab9ff"/>
<stop offset="0.493383" stop-color="#67a2e3"/>
<stop offset="0.604178" stop-color="#4383c9"/>
<stop offset="1" stop-color="#1a4d85"/>
</linearGradient>
<linearGradient gradientTransform="matrix(-0.00373708 -0.999993 0.999993 -0.00373708 96.4044 950.223)" gradientUnits="userSpaceOnUse" id="LinearGradient_2" x1="596.168" x2="206.022" y1="401.639" y2="166.708">
<stop offset="0.00072755" stop-color="#082d57"/>
<stop offset="0.981118" stop-color="#03101d"/>
</linearGradient>
</defs>
<g id="Background">
<path d="M285.4 100L738.6 100C840.994 100 924 183.006 924 285.4L924 738.6C924 840.994 840.994 924 738.6 924L285.4 924C183.006 924 100 840.994 100 738.6L100 285.4C100 183.006 183.006 100 285.4 100Z" fill="url(#LinearGradient)" fill-rule="nonzero" opacity="1" stroke="none"/>
</g>
<g id="Border">
<path d="M285.4 142L738.6 142C817.798 142 882 206.202 882 285.4L882 738.6C882 817.798 817.798 882 738.6 882L285.4 882C206.202 882 142 817.798 142 738.6L142 285.4C142 206.202 206.202 142 285.4 142Z" fill="#ffffff" fill-opacity="0.167077" fill-rule="nonzero" opacity="1" stroke="none"/>
</g>
<g id="MLShapesGroup1">
<path d="M677.021 254.303L698.859 291.661L655.587 291.895L677.021 254.303Z" fill="#12296b" fill-rule="nonzero" opacity="1" stroke="none"/>
<path d="M766.561 408.48L788.4 445.838L745.127 446.072L766.561 408.48Z" fill="#12296b" fill-rule="nonzero" opacity="1" stroke="none"/>
<path d="M767.586 298.777L789.425 336.136L746.152 336.37L767.586 298.777Z" fill="#12296b" fill-rule="nonzero" opacity="1" stroke="none"/>
<path d="M578.464 212.858L600.303 250.216L557.03 250.45L578.464 212.858Z" fill="#12296b" fill-rule="nonzero" opacity="1" stroke="none"/>
<path d="M672.318 358.294L694.157 395.652L650.884 395.886L672.318 358.294Z" fill="#12296b" fill-rule="nonzero" opacity="1" stroke="none"/>
<path d="M575.501 316.11L597.34 353.468L554.067 353.702L575.501 316.11Z" fill="#12296b" fill-rule="nonzero" opacity="1" stroke="none"/>
</g>
<g id="MLShapesGroup2">
<path d="M783.54 600.81C783.681 610.474 775.961 618.422 766.297 618.563C756.633 618.705 748.685 610.985 748.543 601.321C748.402 591.657 756.122 583.708 765.786 583.567C775.45 583.426 783.399 591.146 783.54 600.81Z" fill="#84b1ea" fill-rule="nonzero" opacity="1" stroke="none"/>
<path d="M588.154 684.421C588.296 694.085 580.576 702.033 570.912 702.175C561.248 702.316 553.299 694.596 553.158 684.932C553.017 675.268 560.737 667.319 570.401 667.178C580.065 667.037 588.013 674.757 588.154 684.421Z" fill="#84b1ea" fill-rule="nonzero" opacity="1" stroke="none"/>
<path d="M691.808 746.348C691.949 756.012 684.229 763.961 674.565 764.102C664.901 764.243 656.952 756.523 656.811 746.859C656.67 737.195 664.39 729.247 674.054 729.106C683.718 728.964 691.666 736.684 691.808 746.348Z" fill="#84b1ea" fill-rule="nonzero" opacity="1" stroke="none"/>
<path d="M686.948 640.862C687.09 650.526 679.37 658.475 669.706 658.616C660.042 658.757 652.093 651.037 651.952 641.373C651.811 631.709 659.531 623.761 669.195 623.62C678.859 623.478 686.807 631.198 686.948 640.862Z" fill="#84b1ea" fill-rule="nonzero" opacity="1" stroke="none"/>
<path d="M586.544 785.597C586.685 795.261 578.965 803.209 569.301 803.351C559.637 803.492 551.689 795.772 551.548 786.108C551.406 776.444 559.126 768.495 568.79 768.354C578.454 768.213 586.403 775.933 586.544 785.597Z" fill="#84b1ea" fill-rule="nonzero" opacity="1" stroke="none"/>
<path d="M783.477 709.672C783.618 719.336 775.898 727.285 766.234 727.426C756.57 727.567 748.622 719.847 748.481 710.183C748.34 700.519 756.059 692.571 765.723 692.43C775.387 692.289 783.336 700.008 783.477 709.672Z" fill="#84b1ea" fill-rule="nonzero" opacity="1" stroke="none"/>
</g>
<g id="CoreMLPlayer">
<path d="M363.303 334.944L640.909 493.84C660.073 504.809 660.14 522.71 641.058 533.822L364.648 694.788C345.566 705.9 330.03 697.008 329.947 674.926L328.752 355.065C328.669 332.983 344.139 323.975 363.303 334.944Z" fill="url(#LinearGradient_2)" fill-rule="nonzero" opacity="1" stroke="#387ac2" stroke-linecap="butt" stroke-linejoin="round" stroke-width="10"/>
</g>
<g id="MLines">
<path d="M201.381 393.209C201.381 393.209 277.463 426.765 270.933 446.183C261.248 474.982 194.276 481.619 197.734 511.693" fill="none" opacity="1" stroke="#387ac2" stroke-linecap="square" stroke-linejoin="miter" stroke-width="20"/>
<path d="M202.397 629.471C202.397 629.471 278.479 595.915 271.949 576.496C262.264 547.697 195.292 541.061 198.75 510.986" fill="none" opacity="1" stroke="#375799" stroke-linecap="square" stroke-linejoin="miter" stroke-width="20"/>
</g>
</svg>
